<?xml version="1.0" standalone="no"?><!DOCTYPE svg PUBLIC "-//W3C//DTD SVG 1.1//EN" "http://www.w3.org/Graphics/SVG/1.1/DTD/svg11.dtd"><svg t="1543929541125" class="icon" style="" viewBox="0 0 1024 1024" version="1.1" xmlns="http://www.w3.org/2000/svg" p-id="4626" xmlns:xlink="http://www.w3.org/1999/xlink" width="32" height="32"><defs><style type="text/css"></style></defs><path d="M356.608 587.477333a256 256 0 1 1 310.784 0 384.128 384.128 0 0 1 216.490667 255.232 42.666667 42.666667 0 1 1-82.602667 21.248 298.794667 298.794667 0 0 0-578.56 0 42.666667 42.666667 0 0 1-82.602667-21.248 384.128 384.128 0 0 1 216.490667-255.232zM512 554.666667a170.666667 170.666667 0 1 0 0-341.333334 170.666667 170.666667 0 0 0 0 341.333334z" p-id="4627" fill="#ffffff"></path></svg>